<?xml version="1.0" encoding="UTF-8" standalone="no"?>
<!-- Created with Inkscape (http://www.inkscape.org/) -->

<svg
   width="124.21207mm"
   height="49.467941mm"
   viewBox="0 0 124.21207 49.467942"
   version="1.1"
   id="svg5"
   xml:space="preserve"
   inkscape:version="1.2.2 (1:1.2.2+202305151914+b0a8486541)"
   sodipodi:docname="bcrpy.svg"
   inkscape:export-filename="bcrpy.png"
   inkscape:export-xdpi="96"
   inkscape:export-ydpi="96"
   xmlns:inkscape="http://www.inkscape.org/namespaces/inkscape"
   xmlns:sodipodi="http://sodipodi.sourceforge.net/DTD/sodipodi-0.dtd"
   xmlns="http://www.w3.org/2000/svg"
   xmlns:svg="http://www.w3.org/2000/svg"><sodipodi:namedview
     id="namedview7"
     pagecolor="#ffffff"
     bordercolor="#000000"
     borderopacity="0.25"
     inkscape:showpageshadow="2"
     inkscape:pageopacity="0.0"
     inkscape:pagecheckerboard="0"
     inkscape:deskcolor="#d1d1d1"
     inkscape:document-units="mm"
     showgrid="false"
     inkscape:zoom="1.1036342"
     inkscape:cx="163.09752"
     inkscape:cy="64.785961"
     inkscape:window-width="1846"
     inkscape:window-height="1016"
     inkscape:window-x="74"
     inkscape:window-y="27"
     inkscape:window-maximized="1"
     inkscape:current-layer="layer1" /><defs
     id="defs2" /><g
     inkscape:label="Layer 1"
     inkscape:groupmode="layer"
     id="layer1"
     transform="translate(-28.843786,-135.35127)"><path
       id="path356"
       style="fill:#6ab1f8;fill-opacity:1;stroke:#3df6e1;stroke-width:0;stroke-miterlimit:4.1;stroke-dashoffset:0.345827"
       d="m 55.188874,144.498 c 0,0 -6.198515,-0.013 -6.235795,0.55707 l 0.199988,2.07842 1.666565,0.10284 -0.128158,20.20652 -1.285193,-0.33073 0.168982,1.71101 5.716964,1.32291 6.27972,-0.72553 4.028178,-5.11907 0.146244,-6.46937 -2.960026,-3.96875 -3.007052,-1.2268 -3.286104,0.37052 -1.625224,0.95653 z m 3.651457,11.16521 2.056722,1.45572 0.826823,5.13457 -1.087789,4.02301 -2.914551,1.13895 -2.732133,-0.786 -0.202572,-9.11469 1.053683,-1.10587 z" /><path
       style="fill:#6ab1f8;fill-opacity:1;stroke:#3df6e1;stroke-width:0;stroke-miterlimit:4.1;stroke-dashoffset:0.345827"
       d="m 83.179047,152.0852 -1.720498,-1.1e-4 0.217607,1.0436 -5.270431,-0.69674 -4.615934,2.1863 -2.201614,3.17843 -0.506182,4.87649 1.416219,4.0347 1.85751,2.27809 3.407439,1.12253 5.11384,-0.4702 -0.05272,0.76185 1.510935,-0.0437 1.619329,-6.21028 -1.925169,-0.23825 -0.60081,1.94701 -3.602607,1.50691 -2.567654,-1.1018 -1.839161,-2.83618 0.09839,-4.71733 2.939296,-3.1574 3.887025,0.43073 1.120315,0.94246 -0.119869,1.40773 1.629814,-0.10947 z"
       id="path1347" /><path
       style="fill:#6ab1f8;fill-opacity:1;stroke:#3df6e1;stroke-width:0;stroke-miterlimit:4.1;stroke-dashoffset:0.345827"
       d="m 86.632045,153.2093 0.09418,1.62002 1.611283,0.34006 -0.09887,12.86016 h -1.39151 l -0.119869,1.53464 8.184478,0.0688 -0.11987,-1.89643 -2.478008,-0.13408 -0.136792,-9.76473 2.104207,-1.90702 2.327402,0.40966 0.536535,2.05236 1.287548,-0.23974 0.118369,-5.37072 -4.063463,-0.11665 -2.049965,1.60342 -0.08024,-1.62495 z"
       id="path1349" /><path
       id="path1351"
       style="fill:#6ab1f8;fill-opacity:1;stroke:#3df6e1;stroke-width:0;stroke-miterlimit:4.1;stroke-dashoffset:0.345827"
       d="m 109.28221,152.54453 -3.20704,1.45004 -0.0227,-1.38492 -5.71954,0.3147 -0.078,1.86346 1.7694,0.22634 -0.15141,20.85144 -1.62729,0.0873 0.54312,1.77457 7.32823,-0.12557 -0.13591,-1.64745 -1.96164,-0.56482 v -5.76502 l 3.53209,0.46974 4.55372,-1.90738 2.6479,-4.98574 -0.4439,-5.99809 -3.26905,-3.95221 z m -0.59324,2.94556 1.97507,0.41444 1.87637,1.88619 0.42788,5.23741 -0.78703,3.12487 -3.0148,1.36685 -3.21479,-0.58033 -0.13023,-9.86555 z" /><path
       style="fill:#6ab1f8;fill-opacity:1;stroke:#3df6e1;stroke-width:0;stroke-miterlimit:4.1;stroke-dashoffset:0.345827"
       d="m 118.04583,153.20314 0.15147,1.7242 1.42621,0.45685 5.11312,13.75878 -3.57255,7.28816 -2.254,0.21742 0.28879,1.79294 5.70856,-0.0543 9.27413,-23.80715 1.36979,-0.10518 -0.23769,-1.67404 -7.01136,0.15949 v 1.49822 l 2.104,0.17991 -3.23909,9.48808 -3.00691,-9.24323 1.64557,0.11987 -0.10155,-1.98693 z"
       id="path1949" /></g></svg>
